/* XPM */
static char *buttonPrevCard_XPM[]={
/* buttonPrevCard */
"16 16 5 1",
"      c None",
"0     c #808080",
"1     c #000000",
"2     c #FFFFFF",
"3     c #C0C0C0",
"                ",
"                ",
"      01        ",
"     021        ",
"    0231        ",
"   023310000001 ",
"  0233332222201 ",
" 10333333333301 ",
"  1033000000001 ",
"   103011111111 ",
"    1001        ",
"     101        ",
"      11        ",
"                ",
"                ",
"                "};

