/* XPM */
static const char * save_alert_xpm[] = {
"16 16 12 1",
" 	c #FFFFFF",
".	c #FF6060",
"+	c #FFE3E3",
"@	c #FF0000",
"#	c #000000",
"$	c #1C0000",
"%	c #A80000",
"&	c #FFE4E4",
"*	c #7A7A7A",
"=	c #A70000",
"-	c #FF5F5F",
";	c #C6C6C6",
"           .+@+.",
" ##########$%@%&",
" #*#       +%@=&",
" #*#       .$@$-",
" #*#        #*# ",
" #*#        #*# ",
" #*#        #*# ",
" #*#        #*# ",
" #**########**# ",
" #************# ",
" #**#########*# ",
" #**######;;#*# ",
" #**######;;#*# ",
" #**######;;#*# ",
"  ############# ",
"                "};
