/* XPM */
static const char * sync_alert_xpm[] = {
"16 16 120 2",
"  	c #FFFFFF",
". 	c #BDBDBD",
"+ 	c #9F9F9F",
"@ 	c #A4A4A4",
"# 	c #A3A3A3",
"$ 	c #9C9C9C",
"% 	c #9A9A9A",
"& 	c #A2A2A2",
"* 	c #ADADAD",
"= 	c #DCDCDC",
"- 	c #FF6060",
"; 	c #FFE3E3",
"> 	c #FF0000",
", 	c #A9A9A9",
"' 	c #D8D8D8",
") 	c #E3E3E3",
"! 	c #E9E9E9",
"~ 	c #ECECEC",
"{ 	c #E7E7E7",
"] 	c #EEEEEE",
"^ 	c #D1D1D1",
"/ 	c #C2C2C2",
"( 	c #C2A6A6",
"_ 	c #EC4444",
": 	c #FF5757",
"< 	c #FFE4E4",
"[ 	c #9D9D9D",
"} 	c #B4B4B4",
"| 	c #AFAFAF",
"1 	c #C4C4C4",
"2 	c #F6F6F6",
"3 	c #E2E2E2",
"4 	c #E8E8E8",
"5 	c #E5E5E5",
"6 	c #D8BCBC",
"7 	c #E94242",
"8 	c #939393",
"9 	c #CACACA",
"0 	c #C1C1C1",
"a 	c #C3C3C3",
"b 	c #C6C6C6",
"c 	c #E1E1E1",
"d 	c #F3F3F3",
"e 	c #F85959",
"f 	c #F3D7D7",
"g 	c #AF9393",
"h 	c #FF5F5F",
"i 	c #797979",
"j 	c #C7C7C7",
"k 	c #C5C5C5",
"l 	c #BCBCBC",
"m 	c #AAAAAA",
"n 	c #A8A8A8",
"o 	c #B2B2B2",
"p 	c #A1A1A1",
"q 	c #B5B5B5",
"r 	c #8B8B8B",
"s 	c #8D8D8D",
"t 	c #CDCDCD",
"u 	c #C0C0C0",
"v 	c #969696",
"w 	c #818181",
"x 	c #999999",
"y 	c #7B7B7B",
"z 	c #CECECE",
"A 	c #8A8A8A",
"B 	c #B0B0B0",
"C 	c #C9C9C9",
"D 	c #BABABA",
"E 	c #7F7F7F",
"F 	c #878787",
"G 	c #BEBEBE",
"H 	c #CFCFCF",
"I 	c #808080",
"J 	c #B9B9B9",
"K 	c #979797",
"L 	c #949494",
"M 	c #919191",
"N 	c #898989",
"O 	c #989898",
"P 	c #747474",
"Q 	c #7D7D7D",
"R 	c #BBBBBB",
"S 	c #B8B8B8",
"T 	c #A6A6A6",
"U 	c #BFBFBF",
"V 	c #D3D3D3",
"W 	c #B7B7B7",
"X 	c #D2D2D2",
"Y 	c #6E6E6E",
"Z 	c #686868",
"` 	c #7C7C7C",
" .	c #838383",
"..	c #9E9E9E",
"+.	c #6B6B6B",
"@.	c #D0D0D0",
"#.	c #ACACAC",
"$.	c #D5D5D5",
"%.	c #656565",
"&.	c #C8C8C8",
"*.	c #7A7A7A",
"=.	c #8C8C8C",
"-.	c #A5A5A5",
";.	c #555555",
">.	c #3F3F3F",
",.	c #575757",
"'.	c #D7D7D7",
").	c #5A5A5A",
"!.	c #5D5D5D",
"~.	c #5F5F5F",
"{.	c #A7A7A7",
"].	c #B6B6B6",
"^.	c #777777",
"/.	c #4D4D4D",
"(.	c #4F4F4F",
"_.	c #505050",
":.	c #474747",
"<.	c #4A4A4A",
"[.	c #434343",
"}.	c #565656",
"  . + @ + # $ % & * = - ; > ; - ",
"  , . ' ) ! ~ { ] ^ / ( _ > : < ",
"  [ } | } 1 ! 2 3 4 5 6 _ > 7 < ",
"  8 9 0 a b = c ! d ~ e f > g h ",
"  i j 1 k l m n , o p # q * r   ",
"  s t u l . v , w % x v v 8 y   ",
"  y 0 1 1 z A B b C D . / u E   ",
"  F 1 a G H I J A K L M N O P   ",
"  Q R / S 9 N T U k V W X l Y   ",
"  Z k ^ z J ` * K O  .M F ..Z   ",
"  +.l o @.0 Q #./ / G $.U q P   ",
"  %.0 &.U q *.B O A [ =.-.8 ;.  ",
"  %.O ^ R 9 I x k j t W G 0 >.  ",
"    N ,.q '.).j , &   ,   B !.  ",
"      @ ~. .A {.m D ].q & @ ,.  ",
"        &.^./.(._.:.<.[.;.}.N   "};
