/* XPM */
static const char * sync_xpm[] = {
"16 16 110 2",
"  	g None",
". 	g #BDBDBD",
"+ 	g #9F9F9F",
"@ 	g #A4A4A4",
"# 	g #A3A3A3",
"$ 	g #9C9C9C",
"% 	g #9A9A9A",
"& 	g #A2A2A2",
"* 	g #ADADAD",
"= 	g #DCDCDC",
"- 	g #A9A9A9",
"; 	g #D8D8D8",
"> 	g #E3E3E3",
", 	g #E9E9E9",
"' 	g #ECECEC",
") 	g #E7E7E7",
"! 	g #EEEEEE",
"~ 	g #D1D1D1",
"{ 	g #C2C2C2",
"] 	g #BABABA",
"^ 	g #C8C8C8",
"/ 	g #E0E0E0",
"( 	g #9D9D9D",
"_ 	g #B4B4B4",
": 	g #AFAFAF",
"< 	g #C4C4C4",
"[ 	g #F6F6F6",
"} 	g #E2E2E2",
"| 	g #E8E8E8",
"1 	g #E5E5E5",
"2 	g #D3D3D3",
"3 	g #C6C6C6",
"4 	g #BCBCBC",
"5 	g #C0C0C0",
"6 	g #939393",
"7 	g #CACACA",
"8 	g #C1C1C1",
"9 	g #C3C3C3",
"0 	g #E1E1E1",
"a 	g #F3F3F3",
"b 	g #F1F1F1",
"c 	g #A5A5A5",
"d 	g #797979",
"e 	g #C7C7C7",
"f 	g #C5C5C5",
"g 	g #AAAAAA",
"h 	g #A8A8A8",
"i 	g #B2B2B2",
"j 	g #A1A1A1",
"k 	g #B5B5B5",
"l 	g #8B8B8B",
"m 	g #8D8D8D",
"n 	g #CDCDCD",
"o 	g #969696",
"p 	g #818181",
"q 	g #999999",
"r 	g #7B7B7B",
"s 	g #CECECE",
"t 	g #8A8A8A",
"u 	g #B0B0B0",
"v 	g #C9C9C9",
"w 	g #7F7F7F",
"x 	g #878787",
"y 	g #BEBEBE",
"z 	g #CFCFCF",
"A 	g #808080",
"B 	g #B9B9B9",
"C 	g #979797",
"D 	g #949494",
"E 	g #919191",
"F 	g #898989",
"G 	g #989898",
"H 	g #747474",
"I 	g #7D7D7D",
"J 	g #BBBBBB",
"K 	g #B8B8B8",
"L 	g #A6A6A6",
"M 	g #BFBFBF",
"N 	g #B7B7B7",
"O 	g #D2D2D2",
"P 	g #6E6E6E",
"Q 	g #686868",
"R 	g #7C7C7C",
"S 	g #838383",
"T 	g #9E9E9E",
"U 	g #6B6B6B",
"V 	g #D0D0D0",
"W 	g #ACACAC",
"X 	g #D5D5D5",
"Y 	g #656565",
"Z 	g #7A7A7A",
"` 	g #8C8C8C",
" .	g #555555",
"..	g #3F3F3F",
"+.	g #575757",
"@.	g #D7D7D7",
"#.	g #5A5A5A",
"$.	g #FFFFFF",
"%.	g #5D5D5D",
"&.	g #5F5F5F",
"*.	g #A7A7A7",
"=.	g #B6B6B6",
"-.	g #777777",
";.	g #4D4D4D",
">.	g #4F4F4F",
",.	g #505050",
"'.	g #474747",
").	g #4A4A4A",
"!.	g #434343",
"~.	g #565656",
"  . + @ + # $ % & * =           ",
"  - . ; > , ' ) ! ~ { ] ^ /     ",
"  ( _ : _ < , [ } | 1 2 3 4 5   ",
"  6 7 8 9 3 = 0 , a ' ' b 2 c   ",
"  d e < f 4 g h - i j # k * l   ",
"  m n 5 4 . o - p % q o o 6 r   ",
"  r 8 < < s t u 3 v ] . { 5 w   ",
"  x < 9 y z A B t C D E F G H   ",
"  I J { K 7 F L M f 2 N O 4 P   ",
"  Q f ~ s B R * C G S E x T Q   ",
"  U 4 i V 8 I W { { y X M k H   ",
"  Y 8 ^ M k Z u G t ( ` c 6  .  ",
"  Y G ~ J 7 A q f e n N y 8 ..  ",
"    F +.k @.#.e - & $.- $.u %.  ",
"      @ &.S t *.g ] =.k & @ +.  ",
"        ^ -.;.>.,.'.).!. .~.F   "};
