/* XPM */
static char * wx_nfp_xpm[] = {
"32 32 29 1",
" 	c None",
".	c #FE0000",
"+	c #FF0000",
"@	c #FD0000",
"#	c #0000AC",
"$	c #3A0083",
"%	c #E30012",
"&	c #5C006C",
"*	c #0000A9",
"=	c #0000B5",
"-	c #230092",
";	c #2C008C",
">	c #0000AA",
",	c #1F0095",
"'	c #0000AF",
")	c #210093",
"!	c #0000AE",
"~	c #D70019",
"{	c #320088",
"]	c #12009D",
"^	c #11009E",
"/	c #1E0095",
"(	c #0000B8",
"_	c #D90018",
":	c #0000AB",
"<	c #0000B6",
"[	c #0500A6",
"}	c #0000B7",
"|	c #1A0098",
"                                ",
"                                ",
"                                ",
"                                ",
"                                ",
"                                ",
"   ..++.+      +.+.+.    ..+.   ",
"   ..++.+      +.+++.    ..+.   ",
" +.      ++  ++      ....    .+ ",
" +.      ++  ++      ..+.    .+ ",
" ++        ++        +.      .+ ",
" ++        ++        ++      .+ ",
" +.                  .+      .+ ",
" .++                +..     +.. ",
"  +.+              .++     .++  ",
"   +.              @+      @+   ",
"    +.            ++      ++    ",
"    ...          ...     ...    ",
"     +++        ++.     ++.     ",
"      +++      +.+     ..+      ",
"       +..    ++.+    ++.       ",
"        ++   #$%+&# *=-; **>>   ",
"         ..  ,*' ), !~+  *> >>  ",
"         ++.+{]^ /{+(_+  >>  >  ",
"          +.+{: ::{+<[}> >> >>  ",
"           ++|> >>|+<    >>     ",
"             *>  >* >    >>     ",
"                                ",
"                                ",
"                                ",
"                                ",
"                                "};
