/* XPM */
static char *WxToolButton2_XPM[]={
/* WxToolButton2 */
"16 16 5 1",
"      c None",
"0     c #808080",
"1     c #000000",
"2     c #FFFFFF",
"3     c #C0C0C0",
"                ",
"                ",
"        01      ",
"        021     ",
"        0231    ",
" 000000002331   ",
" 0222222233331  ",
" 03333333333301 ",
" 0000000003301  ",
" 111111110301   ",
"        1001    ",
"        101     ",
"        11      ",
"                ",
"                ",
"                "};

